<svg xmlns="http://www.w3.org/2000/svg" xmlns:svg="http://www.w3.org/2000/svg" id="svg1000" width="108mm" height="108mm" version="1.1" viewBox="0 0 108 108"><metadata id="metadata997"/><g id="layer1" transform="translate(-33.604218,-62.053993)" style="opacity:1"><g id="g302" transform="matrix(0.56810751,0,0,0.56810751,32.488171,46.156131)"><path style="fill:#e53935;fill-opacity:1;stroke:#fff;stroke-width:3;stroke-linecap:butt;stroke-linejoin:miter;stroke-miterlimit:4;stroke-dasharray:none;stroke-opacity:1" id="path1556" d="m 50.648809,96.559225 -3.104818,7.464585 3.577289,7.08749 0.472469,-3.77976 4.063244,2.26786 -0.188987,-3.87426 1.984375,-5.764137 z"/><path style="fill:#f4511e;fill-opacity:1;stroke:#fff;stroke-width:3;stroke-linecap:butt;stroke-linejoin:miter;stroke-miterlimit:4;stroke-dasharray:none;stroke-opacity:1" id="path1558" d="m 51.886256,94.384682 5.566125,5.576321 -1.984375,5.764137 0.188987,3.87426 3.307291,4.91369 18.520833,0.28348 6.70908,-7.55952 -8.409972,-14.741071 -21.072173,-1.700892 z"/><path style="fill:#fdd835;fill-opacity:1;stroke:#fff;stroke-width:3;stroke-linecap:butt;stroke-linejoin:miter;stroke-miterlimit:4;stroke-dasharray:none;stroke-opacity:1" id="path1560" d="m 58.964284,114.51309 1.417413,10.48884 8.389851,11.33786 9.753003,-5.10126 -3.307291,-6.89806 2.267857,-9.5439 15.497024,0.18899 -8.787944,-7.74851 -6.70908,7.55952 z"/><path style="fill:#c0ca33;fill-opacity:1;stroke:#fff;stroke-width:3;stroke-linecap:butt;stroke-linejoin:miter;stroke-miterlimit:4;stroke-dasharray:none;stroke-opacity:1" id="path1562" d="m 70.709082,135.48086 16.225441,16.16839 v 0 l 22.773067,0.37798 v 0 l -20.505209,-9.4494 -10.677832,-11.33929 z"/><path style="fill:#43a047;fill-opacity:1;stroke:#fff;stroke-width:3;stroke-linecap:butt;stroke-linejoin:miter;stroke-miterlimit:4;stroke-dasharray:none;stroke-opacity:1" id="path1564" d="m 92.982139,114.98556 16.630951,12.47321 7.74852,6.61458 4.06324,13.60715 -10.77232,-0.18899 1.79539,6.14211 -2.74033,-1.60639 -20.505209,-9.4494 -10.677832,-11.3393 -3.307289,-6.89806 2.267857,-9.5439 z"/><path style="fill:#00897b;fill-opacity:1;stroke:#fff;stroke-width:3;stroke-linecap:butt;stroke-linejoin:miter;stroke-miterlimit:4;stroke-dasharray:none;stroke-opacity:1" id="path1566" d="m 117.42074,134.08434 3.81512,5.18619 21.92262,12.00074 -12.47321,1.22842 -9.26042,-4.81919 z"/><path style="fill:#c0ca33;fill-opacity:1;stroke:#fff;stroke-width:3;stroke-linecap:butt;stroke-linejoin:miter;stroke-miterlimit:4;stroke-dasharray:none;stroke-opacity:1" id="path1568" d="m 110.65253,147.49151 10.77232,0.18899 9.13209,4.84744 -18.67599,-0.97319 z"/></g></g></svg>