<svg xmlns="http://www.w3.org/2000/svg" xmlns:svg="http://www.w3.org/2000/svg" id="svg1000" width="108mm" height="108mm" version="1.1" viewBox="0 0 108 108"><metadata id="metadata997"/><g id="layer1" transform="translate(-33.604218,-62.053993)" style="opacity:1"><path style="fill:none;fill-opacity:1;stroke:#000;stroke-width:1.70432;stroke-linecap:butt;stroke-linejoin:miter;stroke-miterlimit:4;stroke-dasharray:none;stroke-opacity:1" id="path1556" d="m 61.26214,101.01215 -1.763871,4.24069 2.032285,4.02645 0.268413,-2.14731 2.30836,1.28839 -0.107365,-2.20099 1.127338,-3.27465 z"/><path style="fill:none;fill-opacity:1;stroke:#000;stroke-width:1.70432;stroke-linecap:butt;stroke-linejoin:miter;stroke-miterlimit:4;stroke-dasharray:none;stroke-opacity:1" id="path1558" d="m 61.965143,99.776778 3.162157,3.167952 -1.127338,3.27465 0.107365,2.20099 1.878897,2.79151 10.521824,0.16104 3.811479,-4.29462 -4.777769,-8.374509 -11.971259,-0.966289 z"/><path style="fill:none;fill-opacity:1;stroke:#000;stroke-width:1.70432;stroke-linecap:butt;stroke-linejoin:miter;stroke-miterlimit:4;stroke-dasharray:none;stroke-opacity:1" id="path1560" d="m 65.986224,111.21188 0.805243,5.95879 4.766337,6.44112 5.540754,-2.89806 -1.878897,-3.91884 1.288387,-5.42197 8.803976,0.10737 -4.992497,-4.40199 -3.811479,4.29462 z"/><path style="fill:none;fill-opacity:1;stroke:#000;stroke-width:1.70432;stroke-linecap:butt;stroke-linejoin:miter;stroke-miterlimit:4;stroke-dasharray:none;stroke-opacity:1" id="path1562" d="m 72.658532,123.12383 9.217794,9.18538 v 0 l 12.937551,0.21473 v 0 l -11.649163,-5.36827 -6.066157,-6.44194 z"/><path style="fill:none;fill-opacity:1;stroke:#000;stroke-width:1.70432;stroke-linecap:butt;stroke-linejoin:miter;stroke-miterlimit:4;stroke-dasharray:none;stroke-opacity:1" id="path1564" d="m 85.312022,111.48029 9.448169,7.08613 4.401992,3.75779 2.308357,7.73032 -6.119836,-0.10736 1.019975,3.48937 -1.556802,-0.9126 -11.649163,-5.36827 -6.066157,-6.44194 -1.878896,-3.91884 1.288387,-5.42197 z"/><path style="fill:none;fill-opacity:1;stroke:#000;stroke-width:1.70432;stroke-linecap:butt;stroke-linejoin:miter;stroke-miterlimit:4;stroke-dasharray:none;stroke-opacity:1" id="path1566" d="m 99.195775,122.33045 2.167395,2.94632 12.45441,6.81771 -7.08613,0.69787 -5.26091,-2.73782 z"/><path style="fill:none;fill-opacity:1;stroke:#000;stroke-width:1.70432;stroke-linecap:butt;stroke-linejoin:miter;stroke-miterlimit:4;stroke-dasharray:none;stroke-opacity:1" id="path1568" d="m 95.350704,129.94717 6.119836,0.10736 5.18801,2.75387 -10.609971,-0.55288 z"/></g></svg>